# xmcd
#
# Track frame offsets:
#	150
#	14967
#	30763
#	48703
#	64130
#	79696
#	95670
#	111265
#	126864
#	142856
#	161615
#	178383
#	195504
#	210786
#	228278
#	246768
#	268431
#
# Disc length: 3795 seconds
#
# Revision: 0
# Processed by: cddbd v1.5.2PL0 Copyright (c) Steve Scherf et al.
# Submitted via: EasyCDDAExtractor 15.3.0.1
#
DISCID=ef0ed111
DTITLE=Nek - Greatest Hits 1992-2010 - Es Asi - CD 2
DYEAR=2011
DGENRE=Latin
TTITLE0=Tan Solo Tu
TTITLE1=Hablemos En Pasado
TTITLE2=Cielo Y Tierra
TTITLE3=Al Menos Ahora
TTITLE4=El Año Cero
TTITLE5=Para Ti Seria
TTITLE6=A Contramano
TTITLE7=La Inquietud
TTITLE8=Vertigo
TTITLE9=Noche De Febrero
TTITLE10=En El Cuarto 26
TTITLE11=Deseo Que Ya No Puede Ser
TTITLE12=Si No Amas
TTITLE13=Simples Emociones
TTITLE14=Laura Non C'e (Live 2010)
TTITLE15=Sul Treno (Live 2010)
TTITLE16=Sei Solo Tu (Live 2010)
EXTD=
EXTT0=
EXTT1=
EXTT2=
EXTT3=
EXTT4=
EXTT5=
EXTT6=
EXTT7=
EXTT8=
EXTT9=
EXTT10=
EXTT11=
EXTT12=
EXTT13=
EXTT14=
EXTT15=
EXTT16=
PLAYORDER=
